<?xml version="1.0" standalone="no"?>
<!DOCTYPE svg PUBLIC "-//W3C//DTD SVG 20010904//EN"
 "http://www.w3.org/TR/2001/REC-SVG-20010904/DTD/svg10.dtd">
<svg version="1.0" xmlns="http://www.w3.org/2000/svg"
 width="936.000000pt" height="278.000000pt"  viewBox="0 0 936.000000 278.000000"
 preserveAspectRatio="xMidYMid meet">

<g transform="translate(0.000000,278.000000) scale(0.100000,-0.100000)"
fill="#000000" stroke="none" color="blueviolet">
<path d="M1644 2541 c-50 -23 -97 -72 -124 -128 -27 -59 -26 -73 8 -73 23 0
30 6 41 36 46 127 198 154 289 50 17 -20 35 -48 38 -61 5 -19 13 -25 35 -25
35 0 36 7 4 75 -58 122 -181 176 -291 126z"/>
<path d="M1100 2163 l-1 -138 -47 -30 c-96 -61 -92 -53 -92 -197 l0 -128 -79
0 c-61 0 -82 4 -92 17 -8 9 -29 22 -46 30 -28 11 -38 11 -65 0 -49 -21 -69
-49 -71 -100 -2 -53 14 -88 53 -110 39 -24 74 -21 108 8 l30 25 299 0 300 0
23 25 c35 37 108 36 152 -4 28 -25 32 -34 32 -83 1 -30 -6 -67 -14 -82 -31
-58 -111 -73 -166 -31 l-33 25 -400 0 -400 0 -25 25 c-30 29 -89 34 -124 9
-29 -20 -52 -65 -52 -101 0 -34 31 -88 61 -103 30 -17 96 -6 123 19 21 20 32
21 300 21 l277 0 33 25 c38 29 83 32 126 10 38 -20 60 -63 60 -119 0 -37 -6
-51 -34 -80 -29 -31 -40 -36 -78 -36 -32 0 -54 7 -74 22 -24 20 -42 23 -121
25 -78 2 -96 5 -115 23 -34 31 -107 28 -142 -6 -22 -23 -26 -35 -26 -83 0 -51
4 -61 30 -86 42 -40 97 -41 138 -2 l28 27 164 0 c152 0 165 1 186 21 33 30 92
35 132 9 33 -21 62 -72 62 -110 0 -31 -37 -98 -61 -110 -36 -20 -108 -14 -133
9 -22 20 -32 21 -335 21 l-313 0 -30 25 c-33 28 -101 34 -128 12 -52 -40 -64
-109 -30 -165 34 -56 99 -68 148 -27 l30 25 229 0 229 0 42 31 c52 38 93 35
140 -11 56 -53 55 -129 -3 -187 -43 -43 -98 -46 -143 -8 -29 24 -34 25 -182
25 -146 0 -152 1 -184 25 -47 36 -99 34 -137 -4 -25 -26 -29 -37 -29 -86 0
-49 4 -60 29 -86 39 -38 96 -40 139 -4 25 21 40 25 96 25 l65 0 3 -143 3 -142
763 -3 762 -2 0 145 0 145 95 0 c83 0 97 -3 114 -21 23 -25 90 -36 120 -19 30
15 61 69 61 103 0 63 -54 117 -116 117 -15 0 -42 -11 -60 -25 l-33 -25 -268 0
-269 0 -34 -25 c-68 -50 -156 -19 -181 65 -15 49 -7 81 32 125 50 57 109 56
167 -2 10 -10 61 -13 212 -13 196 0 200 0 236 -25 45 -30 83 -32 118 -4 62 49
70 119 20 179 -22 25 -33 30 -72 30 -36 0 -54 -6 -76 -25 l-29 -25 -282 0
c-269 0 -283 -1 -300 -20 -14 -15 -31 -20 -70 -20 -62 0 -95 26 -114 89 -10
35 -9 46 9 83 36 77 105 98 172 53 l37 -25 449 0 449 0 23 -24 c42 -46 92 -43
148 7 18 17 22 31 22 77 0 49 -4 61 -26 84 -34 34 -108 37 -142 6 -20 -19 -35
-20 -345 -20 l-324 0 -29 -25 c-34 -30 -106 -34 -142 -9 -49 34 -65 108 -37
168 32 66 119 87 173 41 29 -25 33 -25 207 -25 169 0 179 -1 196 -21 12 -14
35 -23 64 -27 42 -4 48 -2 80 32 29 31 35 45 35 81 0 36 -6 50 -34 79 -43 46
-96 50 -138 11 -25 -23 -35 -25 -122 -25 -87 0 -97 -2 -122 -25 -42 -39 -102
-35 -148 9 -33 31 -36 38 -36 89 0 49 4 61 31 92 28 31 37 35 79 35 37 0 55
-6 78 -25 30 -25 31 -25 230 -25 198 0 202 0 238 -25 43 -29 53 -30 99 -11 36
15 65 59 65 99 0 109 -108 159 -186 86 -19 -18 -33 -19 -170 -17 l-149 3 -3
131 -3 131 -64 44 -65 44 0 137 0 138 -630 0 -630 0 0 -137z m1178 73 c3 -4
-21 -33 -53 -66 -32 -33 -57 -61 -54 -64 6 -6 148 -107 192 -136 20 -14 37
-28 37 -32 0 -5 -301 -8 -670 -8 -376 0 -670 4 -670 9 0 5 35 32 78 62 42 29
94 65 115 80 l38 28 -60 63 c-41 43 -55 65 -46 68 21 7 1085 3 1093 -4z"/>
<path d="M1632 2164 c-57 -28 -106 -86 -124 -147 -10 -32 -9 -40 3 -48 22 -14
31 -7 64 48 33 56 50 74 82 91 28 15 108 15 136 1 39 -20 86 -72 98 -106 9
-27 16 -33 40 -33 35 0 36 10 5 75 -59 127 -187 177 -304 119z"/>
<path d="M4378 1786 c-1 -2 -55 -7 -118 -10 -217 -13 -348 -26 -374 -36 -15
-5 -40 -10 -56 -10 -45 0 -218 -48 -310 -87 -47 -19 -114 -47 -149 -61 -44
-19 -70 -36 -82 -57 -44 -70 -7 -113 45 -53 17 19 46 43 64 52 17 9 45 23 62
32 16 8 53 22 82 30 29 8 62 19 73 23 76 32 326 87 338 75 2 -3 -21 -33 -53
-67 -32 -34 -77 -87 -101 -117 -23 -30 -46 -57 -50 -60 -4 -3 -11 -18 -14 -33
-4 -15 -13 -27 -20 -27 -13 0 -68 -69 -99 -125 -9 -16 -28 -45 -41 -64 -14
-19 -25 -45 -25 -58 0 -13 -7 -26 -16 -30 -14 -5 -74 -118 -74 -140 0 -6 -11
-30 -24 -54 -27 -49 -52 -174 -43 -211 12 -46 46 -78 82 -78 41 0 56 22 55 77
-2 54 31 177 68 255 18 37 32 72 32 78 0 12 43 112 63 146 7 11 21 35 32 53
54 89 85 144 85 153 0 5 13 20 28 33 15 13 34 36 42 52 8 15 43 59 79 96 54
55 66 74 66 100 l0 32 120 6 c123 6 169 -1 179 -27 11 -30 100 -8 109 27 8 31
-7 71 -30 80 -12 4 -23 6 -25 5z"/>
<path d="M6759 1735 c-3 -2 -23 -5 -44 -6 -36 -2 -170 -38 -220 -59 -11 -5
-35 -14 -52 -22 -18 -7 -33 -16 -33 -20 0 -3 -13 -9 -29 -13 -26 -6 -105 -50
-141 -80 -52 -42 -143 -142 -160 -175 -55 -108 -6 -163 185 -205 44 -9 96 -23
115 -31 19 -7 62 -19 95 -26 111 -23 193 -86 180 -138 -16 -62 -135 -183 -194
-196 -14 -3 -73 -28 -131 -54 -58 -27 -139 -62 -180 -79 -145 -60 -173 -93
-99 -118 69 -22 256 35 416 128 185 108 210 122 282 155 77 36 101 41 101 23
0 -15 65 38 173 142 50 48 92 87 93 86 1 -1 -2 -27 -7 -57 -24 -143 -5 -293
41 -335 59 -53 92 72 39 146 -23 32 -24 100 -5 204 18 95 35 130 98 202 29 34
67 82 85 106 30 42 37 46 110 62 61 14 81 15 96 5 17 -10 24 -7 53 20 42 42
63 88 44 100 -7 4 -18 7 -24 5 -31 -10 -145 -38 -174 -42 l-34 -5 7 44 c7 45
-7 98 -25 98 -15 0 -68 -57 -110 -117 -34 -49 -38 -51 -110 -67 -77 -18 -255
-62 -320 -81 -3 -1 -33 -7 -68 -15 -80 -16 -112 -41 -112 -84 0 -48 17 -59 51
-35 15 11 68 28 116 39 48 10 108 26 132 35 24 8 60 15 80 15 20 0 41 4 47 9
13 13 84 25 84 15 0 -15 -51 -107 -77 -139 -13 -16 -70 -77 -126 -133 -82 -84
-117 -112 -181 -144 -43 -21 -81 -36 -85 -33 -3 4 1 12 10 18 48 36 68 142 36
191 -21 32 -63 60 -79 53 -23 -8 -33 -6 -30 8 2 11 -41 26 -88 30 -8 1 -22 4
-30 7 -54 21 -122 31 -270 42 -19 1 -46 7 -60 13 -14 6 -40 17 -57 23 -46 17
-42 39 21 107 54 58 85 80 184 129 28 14 57 34 63 45 7 14 14 17 27 10 11 -6
27 -4 52 8 43 22 185 58 262 66 37 4 87 0 143 -11 74 -15 89 -21 115 -51 30
-33 39 -63 20 -63 -5 0 -14 -9 -20 -21 -21 -38 25 -65 64 -36 36 26 20 172
-24 212 -11 10 -20 25 -20 33 0 9 -7 13 -20 9 -11 -3 -23 -1 -26 5 -7 10 -50
30 -74 33 -8 1 -36 5 -62 9 -31 5 -48 4 -48 -3 0 -7 -8 -7 -26 -1 -28 11 -38
12 -45 5z m-399 -1083 c0 -17 -212 -93 -226 -80 -2 3 20 17 50 32 87 43 176
67 176 48z"/>
<path d="M5503 1638 c-87 -122 -253 -434 -253 -474 0 -8 -4 -14 -8 -14 -5 0
-19 -22 -32 -50 -21 -45 -101 -131 -134 -143 -8 -3 -41 -26 -74 -51 -33 -25
-89 -62 -124 -82 -175 -100 -184 -104 -244 -106 -55 -3 -59 -2 -62 21 -6 38 8
91 27 110 10 10 27 33 37 51 19 32 150 127 161 116 3 -3 14 -1 24 5 13 7 29 5
53 -5 33 -14 37 -13 61 6 21 16 25 26 20 47 -10 40 -21 46 -93 47 -50 1 -80
-4 -117 -21 -57 -25 -155 -102 -155 -121 0 -7 -6 -17 -14 -21 -18 -11 -71
-100 -85 -145 -10 -29 -9 -43 3 -70 31 -70 64 -93 148 -103 49 -6 59 -5 64 9
4 9 14 16 23 14 9 -1 27 5 41 15 13 9 30 17 37 17 12 0 78 46 131 90 13 11 29
20 35 20 6 0 20 8 31 18 12 10 38 29 59 41 45 28 48 17 13 -60 -28 -61 -33
-94 -22 -126 9 -29 31 -29 54 -1 40 50 116 133 125 137 5 2 21 15 36 30 58 54
164 131 182 131 4 0 12 7 17 16 6 12 16 14 32 9 21 -7 22 -11 16 -59 -4 -28
-10 -76 -14 -106 -9 -67 0 -120 24 -137 28 -20 69 -15 98 12 15 14 31 25 36
25 5 0 17 11 26 25 9 14 20 25 25 25 25 0 100 67 114 102 15 39 19 68 9 68 -8
0 -66 -45 -148 -112 -38 -32 -73 -55 -77 -52 -14 9 -10 55 11 122 11 35 20 85
20 111 0 41 -3 49 -25 59 -74 34 -181 -10 -273 -110 -9 -10 -20 -18 -25 -18
-5 0 -28 -21 -52 -47 -24 -27 -46 -45 -49 -42 -8 8 79 188 118 245 14 21 26
44 26 51 0 7 9 13 19 13 20 0 88 88 130 170 13 25 30 57 37 72 8 14 14 31 14
36 0 6 5 23 12 39 26 62 35 131 22 163 -19 45 -53 40 -91 -12z"/>
<path d="M8275 1132 c-17 -15 -170 -136 -257 -203 -19 -14 -28 -30 -28 -50 l0
-29 33 17 c17 10 48 29 67 43 19 14 42 30 52 35 9 6 44 29 78 52 87 60 105 41
49 -52 -48 -81 -79 -155 -79 -190 0 -78 41 -125 111 -125 38 0 129 40 129 57
0 7 6 13 14 13 8 0 16 7 20 15 3 8 9 14 14 13 11 -4 113 80 137 111 20 26 31
91 16 91 -6 0 -16 -9 -24 -20 -24 -35 -129 -113 -204 -152 -74 -39 -133 -50
-133 -24 0 32 58 125 124 200 32 36 32 54 3 142 -24 69 -24 69 -63 72 -27 2
-45 -3 -59 -16z"/>
<path d="M7672 1105 c-40 -12 -90 -34 -110 -47 -20 -14 -55 -36 -77 -51 -63
-42 -115 -97 -115 -123 0 -28 18 -41 26 -20 3 9 10 16 15 16 5 0 18 9 30 21
11 11 23 18 26 16 2 -3 -3 -37 -12 -76 -21 -86 -16 -111 38 -168 58 -61 99
-66 187 -24 118 57 143 77 189 150 30 47 35 62 35 121 1 54 -3 72 -19 90 -11
12 -20 34 -20 48 0 21 -8 31 -36 44 -59 28 -80 28 -157 3z m148 -73 c0 -5 -9
-17 -20 -27 -25 -23 -25 -39 1 -74 l21 -29 -25 -54 c-46 -98 -155 -187 -212
-172 -14 3 -27 10 -30 14 -8 13 -14 120 -6 120 4 0 13 17 19 38 7 21 23 49 37
62 14 13 25 28 25 34 0 7 16 20 35 30 19 11 35 23 35 29 0 5 9 7 19 4 11 -2
32 3 48 13 31 20 53 25 53 12z"/>
<path d="M4210 1114 c-43 -9 -124 -51 -140 -74 -8 -11 -29 -37 -47 -56 -17
-19 -40 -56 -49 -82 -10 -26 -23 -54 -29 -62 -30 -39 -29 -44 38 -143 34 -52
134 -57 238 -12 35 16 69 34 75 42 6 7 18 13 26 13 9 0 26 11 39 24 13 12 29
25 35 27 18 6 102 86 114 108 10 20 14 81 5 81 -12 0 -75 -67 -75 -79 0 -7 -4
-10 -9 -7 -8 5 -95 -45 -128 -74 -7 -5 -14 -10 -17 -10 -3 0 -24 -13 -48 -29
-48 -32 -168 -66 -198 -56 -14 4 -20 15 -20 36 0 23 7 34 31 47 18 9 39 25 48
35 8 9 20 17 27 17 6 0 24 13 40 30 16 16 34 30 40 30 7 0 14 7 18 15 3 8 13
15 22 15 16 0 54 26 100 67 27 25 32 64 10 82 -16 13 -106 22 -146 15z m63
-61 c15 -15 -175 -159 -194 -147 -5 3 0 22 10 43 21 40 79 84 132 100 44 12
45 12 52 4z"/>
<path d="M8940 1114 c-44 -9 -112 -45 -134 -71 -11 -14 -31 -36 -44 -48 -12
-12 -35 -52 -52 -88 -16 -36 -34 -68 -40 -72 -12 -8 -13 -65 -1 -65 5 0 14
-14 20 -31 10 -29 52 -77 69 -80 68 -13 166 4 217 38 11 7 27 13 36 13 9 0 19
7 23 15 3 8 12 15 19 15 8 0 27 12 43 27 16 15 32 28 35 28 12 0 97 81 108
104 14 25 21 81 11 81 -13 0 -80 -68 -80 -81 0 -11 -2 -11 -9 -1 -6 10 -10 10
-21 -3 -7 -8 -35 -28 -61 -43 -27 -15 -49 -30 -49 -34 0 -5 -4 -8 -9 -8 -6 0
-29 -13 -53 -29 -55 -37 -169 -66 -198 -51 -39 21 -20 64 41 95 16 9 29 20 29
25 0 6 5 10 10 10 14 0 110 72 110 82 0 4 8 8 18 8 25 1 111 66 124 96 10 21
8 28 -9 45 -20 21 -101 33 -153 23z m69 -66 c0 -15 -116 -106 -166 -132 -30
-15 -33 -15 -33 0 0 9 7 28 16 43 32 54 185 128 183 89z"/>
</g>
</svg>
